# xmcd
#
# Track frame offsets:
#	150
#	75557
#	144422
#	211650
#	288485
#
# Disc length: 4434 seconds
#
# Revision: 1
# Processed by: cddbd v1.5.2PL0 Copyright (c) Steve Scherf et al.
# Submitted via: audiograbber 1.83.01
#
DISCID=3e115005
DTITLE=Hermann Nitsch - Kompositionen für Orgel
DYEAR=1900
DGENRE=
TTITLE0=1. Satz
TTITLE1=2. Satz
TTITLE2=3. Satz
TTITLE3=4. Satz
TTITLE4=5. Satz
EXTD=
EXTT0=
EXTT1=
EXTT2=
EXTT3=
EXTT4=
PLAYORDER=
